<svg width="271" height="271" viewBox="0 0 271 271" fill="none" xmlns="http://www.w3.org/2000/svg">
<path d="M47.9399 239.678C96.8283 268.534 176.101 268.534 224.995 239.678C273.889 210.822 273.889 164.036 224.995 135.186C176.101 106.335 96.8283 106.33 47.9345 135.186C-0.959316 164.042 -0.953899 210.838 47.9399 239.678Z" fill="#F5F5F5"/>
<path d="M211.998 233.629C225.226 233.629 235.949 227.439 235.949 219.803C235.949 212.167 225.226 205.976 211.998 205.976C198.77 205.976 188.047 212.167 188.047 219.803C188.047 227.439 198.77 233.629 211.998 233.629Z" fill="#E0E0E0"/>
<path d="M196.974 41.8099L201.131 44.2109C201.108 44.0311 201.095 43.8502 201.093 43.6689V42.4549C201.093 40.2869 202.6 39.4413 204.453 40.5145C205.252 41.005 205.936 41.6611 206.459 42.4386C206.762 39.7286 208.876 38.7422 211.445 40.2218C214.22 41.8478 216.469 45.7231 216.469 48.9318V50.7312C216.488 51.4498 216.343 52.1631 216.047 52.8179L219.494 54.8125C220.04 55.1684 220.493 55.6488 220.817 56.2141C221.141 56.7794 221.327 57.4136 221.358 58.0645C221.358 59.2514 220.524 59.7338 219.494 59.1485L196.974 46.1405C196.428 45.7845 195.974 45.3042 195.65 44.7388C195.326 44.1735 195.141 43.5394 195.109 42.8885C195.12 41.6961 195.944 41.192 196.974 41.8099Z" fill="#EBEBEB"/>
<path d="M179.185 53.9182L182.323 55.7284C182.306 55.5918 182.297 55.4542 182.296 55.3165V54.406C182.296 52.78 183.434 52.135 184.833 52.9426C185.436 53.3114 185.952 53.807 186.345 54.3951C186.573 52.3626 188.166 51.6038 190.106 52.7203C191.211 53.4409 192.13 54.4117 192.79 55.554C193.449 56.6963 193.829 57.9779 193.9 59.2948V60.6552C193.915 61.1967 193.806 61.7343 193.581 62.227L196.182 63.7338C196.592 64 196.933 64.3591 197.178 64.7819C197.423 65.2048 197.565 65.6795 197.592 66.1674C197.592 67.0671 196.963 67.4302 196.182 66.9804L179.185 57.1647C178.777 56.8996 178.437 56.5422 178.192 56.1214C177.947 55.7005 177.805 55.228 177.776 54.742C177.776 53.8314 178.41 53.4683 179.185 53.9182Z" fill="#EBEBEB"/>
<path d="M40.043 156.432C39.734 156.6 34.081 158.21 31.9672 155.435C29.8534 152.66 33.3493 148.34 31.3818 146.763C29.4143 145.186 23.8968 146.763 22.5689 143.419C21.241 140.074 25.1759 138.622 22.9645 135.245C21.5716 133.121 18.1462 131.928 17.8426 129.961C17.344 126.676 22.7857 125.164 27.4469 128.27C32.1081 131.375 34.9211 129.95 36.4007 129.739C37.8804 129.527 41.0619 129.993 40.9589 135.159C40.856 140.324 40.043 156.432 40.043 156.432Z" fill="#BA68C8"/>
<path d="M40.417 149.05C40.3434 149.051 40.2721 149.025 40.2163 148.977C40.1605 148.929 40.1239 148.863 40.1134 148.79C38.4874 138.947 27.0458 130.931 21.0947 129.213C21.0156 129.191 20.9486 129.138 20.9085 129.066C20.8683 128.994 20.8583 128.91 20.8806 128.831C20.9029 128.752 20.9556 128.685 21.0273 128.645C21.0989 128.604 21.1836 128.594 21.2627 128.617C27.3493 130.378 39.0565 138.589 40.7205 148.671C40.733 148.751 40.7133 148.833 40.6656 148.899C40.6179 148.965 40.5461 149.01 40.4657 149.023L40.417 149.05Z" fill="white"/>
<path d="M26.9211 140.812C26.853 140.814 26.786 140.793 26.731 140.753C26.676 140.713 26.6362 140.655 26.618 140.589C26.5998 140.523 26.6044 140.453 26.6309 140.39C26.6573 140.328 26.7042 140.275 26.764 140.242C26.9482 140.129 31.3493 137.533 35.6907 138.757C35.7694 138.781 35.8358 138.835 35.8762 138.906C35.9166 138.978 35.9278 139.063 35.9075 139.142C35.8848 139.22 35.8322 139.286 35.7612 139.326C35.6902 139.365 35.6064 139.375 35.5281 139.354C31.436 138.21 27.1 140.747 27.1 140.774C27.0454 140.803 26.9832 140.817 26.9211 140.812Z" fill="white"/>
<path d="M42.2381 160.215C42.296 161.003 42.5386 161.767 42.9463 162.444C43.3541 163.121 43.9154 163.692 44.585 164.112L110.346 202.052C111.073 202.421 111.877 202.613 112.693 202.613C113.508 202.613 114.312 202.421 115.04 202.052L205.012 150.101C205.721 149.727 206.314 149.166 206.728 148.48C207.142 147.793 207.361 147.006 207.361 146.204C207.361 145.403 207.142 144.616 206.728 143.929C206.314 143.243 205.721 142.682 205.012 142.308L139.256 104.368C138.529 103.999 137.725 103.806 136.909 103.806C136.094 103.806 135.29 103.999 134.562 104.368L44.5904 156.318C43.9198 156.737 43.3574 157.309 42.9487 157.986C42.5401 158.663 42.2966 159.427 42.2381 160.215Z" fill="#37474F"/>
<path d="M112.693 197.559V202.638C111.877 202.66 111.069 202.473 110.346 202.096L44.5849 164.156C43.8974 163.793 43.3182 163.255 42.9064 162.596C42.4946 161.937 42.2648 161.181 42.2406 160.404C42.2164 159.627 42.3985 158.858 42.7684 158.174C43.1384 157.491 43.6829 156.918 44.3465 156.513C43.295 157.267 43.3763 158.372 44.5849 159.072L110.346 197.012C111.069 197.391 111.877 197.58 112.693 197.559Z" fill="#263238"/>
<path d="M40.0376 156.4C39.3832 155.957 38.8428 155.366 38.4604 154.674C38.078 153.983 37.8644 153.211 37.837 152.421V73.9451C37.8815 73.1308 38.1172 72.3385 38.5249 71.6322C38.9326 70.926 39.501 70.3257 40.1839 69.8801L130.156 17.9348C130.854 17.565 131.629 17.3644 132.419 17.3494C133.209 17.3343 133.992 17.5051 134.703 17.8481C135.358 18.2921 135.899 18.8842 136.282 19.5763C136.666 20.2684 136.88 21.0411 136.909 21.8318V100.303C136.866 101.117 136.63 101.91 136.222 102.616C135.815 103.322 135.246 103.922 134.562 104.368L44.5904 156.318C43.8915 156.689 43.1149 156.89 42.3237 156.904C41.5325 156.918 40.7492 156.745 40.0376 156.4Z" fill="#455A64"/>
<path d="M44.3085 156.459C43.6357 156.763 42.9044 156.914 42.1664 156.904C41.4284 156.894 40.7017 156.722 40.0376 156.4C39.3842 155.956 38.8445 155.364 38.4622 154.673C38.0799 153.982 37.8657 153.211 37.837 152.421V73.9451C37.8637 73.129 38.1008 72.3336 38.5254 71.6361L42.9264 74.1727C42.5049 74.8715 42.2681 75.6661 42.2381 76.4816V154.963C42.2381 156.351 43.1432 156.974 44.3085 156.459Z" fill="#263238"/>
<path d="M42.2381 76.487V154.963C42.2381 156.459 43.2896 157.066 44.585 156.318L134.557 104.368C135.24 103.922 135.809 103.322 136.217 102.616C136.625 101.91 136.86 101.117 136.904 100.303V21.8318C136.904 20.3358 135.852 19.7288 134.557 20.4768L44.585 72.422C43.9023 72.868 43.3342 73.4684 42.9265 74.1745C42.5189 74.8807 42.283 75.6729 42.2381 76.487Z" fill="#37474F"/>
<path d="M44.5849 159.028L110.346 196.968C111.073 197.337 111.877 197.53 112.693 197.53C113.508 197.53 114.312 197.337 115.04 196.968L205.012 145.018C206.307 144.27 206.307 143.055 205.012 142.308L139.256 104.368C138.529 103.999 137.725 103.806 136.909 103.806C136.094 103.806 135.29 103.999 134.562 104.368L44.5904 156.318C43.2896 157.066 43.2896 158.264 44.5849 159.028Z" fill="#455A64"/>
<path d="M45.8478 76.7797L132.568 26.7098C133.348 26.2599 133.977 26.623 133.977 27.5228V95.4516C133.951 95.9405 133.81 96.4162 133.565 96.8401C133.32 97.2639 132.978 97.6239 132.568 97.8906L45.8478 147.966C45.0673 148.416 44.4386 148.053 44.4386 147.153V79.2187C44.4646 78.7299 44.6059 78.2541 44.8508 77.8303C45.0957 77.4064 45.4373 77.0464 45.8478 76.7797Z" fill="white"/>
<path opacity="0.6" d="M45.8478 76.7797L132.568 26.7098C133.348 26.2599 133.977 26.623 133.977 27.5228V95.4516C133.951 95.9405 133.81 96.4162 133.565 96.8401C133.32 97.2639 132.978 97.6239 132.568 97.8906L45.8478 147.966C45.0673 148.416 44.4386 148.053 44.4386 147.153V79.2187C44.4646 78.7299 44.6059 78.2541 44.8508 77.8303C45.0957 77.4064 45.4373 77.0464 45.8478 76.7797Z" fill="#BA68C8"/>
<path d="M89.0344 72.4817C91.3433 71.1483 93.2186 72.2323 93.2186 74.899C93.1391 76.3498 92.7189 77.7615 91.9919 79.0196C91.2649 80.2777 90.2517 81.3468 89.0344 82.1401C86.7254 83.4734 84.8555 82.3948 84.8555 79.7282C84.9335 78.2769 85.3526 76.8644 86.0786 75.6054C86.8047 74.3463 87.8173 73.2761 89.0344 72.4817Z" fill="#F0F0F0"/>
<path d="M97.2781 86.7471C97.2781 82.3677 94.1996 80.422 90.4056 82.6116L88.037 84.01C84.243 86.178 81.1645 91.5275 81.1645 95.934V97.1156L97.2781 87.8148V86.7471Z" fill="#F0F0F0"/>
<path d="M105.424 88.888C105.273 88.5357 104.882 88.449 104.443 88.6983L76.3028 104.958C76.0006 105.157 75.7491 105.424 75.5685 105.737C75.3878 106.051 75.2829 106.402 75.2621 106.763V110.069C75.2621 110.611 75.5982 110.909 76.0535 110.785L76.1293 110.758C76.1886 110.734 76.2465 110.707 76.3028 110.676L104.443 94.4164C104.747 94.2188 104.999 93.9523 105.18 93.6387C105.361 93.325 105.465 92.9731 105.484 92.6115V89.3216C105.489 89.1747 105.469 89.0281 105.424 88.888Z" fill="#F0F0F0"/>
<path d="M78.8448 105.37C79.3868 105.05 79.8366 105.311 79.8366 105.939C79.8191 106.283 79.72 106.618 79.5476 106.915C79.3751 107.213 79.1342 107.466 78.8448 107.652C78.3028 107.966 77.8583 107.712 77.8583 107.078C77.8761 106.735 77.9748 106.402 78.1462 106.105C78.3177 105.808 78.5571 105.557 78.8448 105.37Z" fill="#BA68C8"/>
<path d="M82.1184 103.479C82.6604 103.164 83.1049 103.419 83.1049 104.053C83.0871 104.395 82.9885 104.729 82.817 105.025C82.6455 105.322 82.4061 105.574 82.1184 105.76C81.5764 106.08 81.1266 105.82 81.1266 105.218C81.1398 104.87 81.2369 104.53 81.4096 104.227C81.5823 103.924 81.8254 103.668 82.1184 103.479Z" fill="#BA68C8"/>
<path d="M85.3867 101.592C85.9287 101.278 86.3731 101.533 86.3731 102.162C86.3562 102.505 86.258 102.839 86.0864 103.137C85.9149 103.435 85.6751 103.687 85.3867 103.874C84.8447 104.189 84.3948 103.934 84.3948 103.305C84.4124 102.961 84.5114 102.627 84.6839 102.329C84.8564 102.031 85.0973 101.779 85.3867 101.592Z" fill="#BA68C8"/>
<path d="M88.655 99.728C89.197 99.4082 89.6468 99.6684 89.6468 100.27C89.6293 100.614 89.5302 100.948 89.3577 101.246C89.1853 101.544 88.9444 101.796 88.655 101.983C88.113 102.297 87.6685 102.042 87.6685 101.441C87.6854 101.097 87.7837 100.763 87.9552 100.465C88.1267 100.168 88.3666 99.9149 88.655 99.728Z" fill="#BA68C8"/>
<path d="M91.9232 97.8147C92.4652 97.5004 92.9151 97.7551 92.9151 98.3893C92.8954 98.7325 92.7954 99.0663 92.6231 99.3638C92.4508 99.6612 92.2111 99.9141 91.9232 100.102C91.3812 100.416 90.9368 100.162 90.9368 99.5275C90.9558 99.1847 91.055 98.8512 91.2263 98.5538C91.3976 98.2563 91.6363 98.0032 91.9232 97.8147Z" fill="#BA68C8"/>
<path d="M95.1969 95.934C95.7389 95.6196 96.1833 95.8744 96.1833 96.476C96.1664 96.8192 96.0681 97.1535 95.8966 97.4513C95.7251 97.7491 95.4853 98.0018 95.1969 98.1887C94.6549 98.5031 94.205 98.2483 94.205 97.6467C94.2225 97.303 94.3216 96.9684 94.4941 96.6706C94.6666 96.3727 94.9075 96.1203 95.1969 95.934Z" fill="#BA68C8"/>
<path d="M98.4651 94.0424C99.0071 93.7281 99.4516 93.9828 99.4516 94.6115C99.4347 94.9548 99.3364 95.289 99.1649 95.5868C98.9934 95.8846 98.7535 96.1374 98.4651 96.3242C97.9231 96.6386 97.4787 96.3839 97.4787 95.7551C97.4956 95.4119 97.5939 95.0776 97.7654 94.7798C97.9369 94.482 98.1767 94.2293 98.4651 94.0424Z" fill="#BA68C8"/>
<path d="M101.733 92.14C102.275 91.8256 102.725 92.0804 102.725 92.7145C102.706 93.0577 102.606 93.3915 102.433 93.689C102.261 93.9865 102.021 94.2394 101.733 94.4272C101.191 94.7416 100.747 94.4869 100.747 93.8527C100.767 93.5102 100.866 93.177 101.038 92.8797C101.209 92.5824 101.447 92.3291 101.733 92.14Z" fill="#BA68C8"/>
<path d="M52.2163 156.996L135.733 108.758C136.097 108.573 136.499 108.477 136.906 108.477C137.314 108.477 137.716 108.573 138.08 108.758L142.351 111.224C142.492 111.272 142.615 111.363 142.702 111.485C142.79 111.606 142.836 111.752 142.836 111.901C142.836 112.051 142.79 112.197 142.702 112.318C142.615 112.44 142.492 112.531 142.351 112.579L58.8232 160.811C58.4595 160.996 58.0575 161.092 57.6498 161.092C57.2421 161.092 56.8401 160.996 56.4764 160.811L52.2163 158.351C52.0747 158.303 51.9517 158.211 51.8646 158.09C51.7775 157.968 51.7307 157.823 51.7307 157.673C51.7307 157.524 51.7775 157.378 51.8646 157.256C51.9517 157.135 52.0747 157.044 52.2163 156.996Z" fill="#37474F"/>
<path d="M63.2243 163.353L146.741 115.115C147.105 114.931 147.507 114.835 147.915 114.835C148.322 114.835 148.724 114.931 149.088 115.115L175.364 130.291C175.506 130.339 175.629 130.431 175.716 130.552C175.803 130.674 175.85 130.819 175.85 130.969C175.85 131.118 175.803 131.264 175.716 131.386C175.629 131.507 175.506 131.598 175.364 131.646L91.9449 179.809C91.5799 179.992 91.1771 180.087 90.7687 180.087C90.3604 180.087 89.9576 179.992 89.5926 179.809L63.2297 164.698C63.0892 164.65 62.967 164.56 62.8803 164.44C62.7935 164.32 62.7466 164.176 62.746 164.027C62.7454 163.879 62.7912 163.734 62.877 163.614C62.9627 163.493 63.0842 163.402 63.2243 163.353Z" fill="#263238"/>
<path d="M138.091 136.828L140.709 135.316C140.817 135.251 140.812 135.142 140.709 135.077L137.668 133.332C137.603 133.299 137.532 133.281 137.459 133.281C137.387 133.281 137.315 133.299 137.251 133.332L134.633 134.844C134.524 134.904 134.53 135.012 134.633 135.083L137.657 136.828C137.724 136.864 137.798 136.883 137.874 136.883C137.95 136.883 138.024 136.864 138.091 136.828ZM132.931 130.828L130.318 132.335C130.205 132.4 130.21 132.508 130.318 132.579L133.343 134.324C133.408 134.356 133.479 134.373 133.551 134.373C133.624 134.373 133.695 134.356 133.76 134.324L136.378 132.812C136.486 132.747 136.481 132.638 136.378 132.573L133.332 130.839C133.27 130.806 133.202 130.789 133.133 130.787C133.063 130.785 132.994 130.799 132.931 130.828ZM124.481 135.706L120.058 138.259C119.945 138.324 119.955 138.432 120.058 138.503L123.077 140.248C123.142 140.28 123.214 140.297 123.286 140.297C123.358 140.297 123.43 140.28 123.495 140.248L127.923 137.695C128.031 137.63 128.026 137.522 127.923 137.457L124.898 135.706C124.834 135.674 124.762 135.657 124.69 135.657C124.617 135.657 124.546 135.674 124.481 135.706ZM129.11 133.034L126.492 134.546C126.384 134.606 126.389 134.714 126.492 134.785L129.538 136.53C129.603 136.562 129.674 136.578 129.747 136.578C129.819 136.578 129.89 136.562 129.955 136.53L132.568 135.018C132.682 134.953 132.676 134.844 132.568 134.779L129.538 133.045C129.473 133.008 129.4 132.988 129.325 132.986C129.251 132.984 129.177 133 129.11 133.034ZM118.85 138.958L116.237 140.465C116.123 140.53 116.129 140.638 116.237 140.709L119.262 142.454C119.326 142.487 119.398 142.504 119.47 142.504C119.543 142.504 119.614 142.487 119.679 142.454L122.297 140.947C122.405 140.882 122.4 140.774 122.297 140.703L119.273 138.958C119.207 138.925 119.135 138.908 119.061 138.908C118.988 138.908 118.915 138.925 118.85 138.958ZM115.029 141.164L112.416 142.671C112.302 142.736 112.308 142.844 112.416 142.915L115.446 144.66C115.511 144.692 115.582 144.708 115.655 144.708C115.727 144.708 115.798 144.692 115.863 144.66L118.481 143.148C118.59 143.083 118.584 142.974 118.481 142.909L115.446 141.175C115.382 141.14 115.311 141.121 115.239 141.119C115.166 141.117 115.094 141.132 115.029 141.164ZM126.92 148.264L129.538 146.752C129.646 146.687 129.641 146.578 129.538 146.513L126.514 144.768C126.449 144.735 126.378 144.718 126.305 144.718C126.232 144.718 126.161 144.735 126.096 144.768L123.484 146.28C123.37 146.34 123.381 146.448 123.484 146.519L126.503 148.264C126.567 148.297 126.639 148.315 126.711 148.315C126.784 148.315 126.856 148.297 126.92 148.264ZM123.126 150.47L125.744 148.958C125.852 148.893 125.847 148.79 125.744 148.719L122.72 146.974C122.655 146.941 122.584 146.923 122.511 146.923C122.438 146.923 122.367 146.941 122.302 146.974L119.69 148.486C119.576 148.551 119.581 148.654 119.69 148.725L122.714 150.47C122.774 150.498 122.84 150.513 122.907 150.513C122.973 150.513 123.039 150.498 123.099 150.47H123.126ZM119.305 152.676L121.923 151.164C122.031 151.104 122.026 150.996 121.923 150.925L118.899 149.18C118.834 149.147 118.762 149.129 118.69 149.129C118.617 149.129 118.546 149.147 118.481 149.18L115.825 150.676C115.712 150.741 115.717 150.849 115.825 150.914L118.85 152.66C118.914 152.697 118.987 152.719 119.062 152.721C119.136 152.724 119.211 152.709 119.278 152.676H119.305ZM115.511 154.882L118.129 153.37C118.237 153.31 118.232 153.202 118.129 153.131L115.105 151.386C115.04 151.354 114.968 151.337 114.896 151.337C114.823 151.337 114.752 151.354 114.687 151.386L112.069 152.898C111.961 152.963 111.966 153.072 112.069 153.137L115.094 154.882C115.149 154.905 115.209 154.917 115.27 154.917C115.33 154.917 115.39 154.905 115.446 154.882H115.511ZM134.324 139.034L136.936 137.522C137.05 137.457 137.045 137.354 136.936 137.283L133.874 135.538C133.809 135.505 133.738 135.487 133.665 135.487C133.593 135.487 133.521 135.505 133.457 135.538L130.839 137.05C130.73 137.115 130.736 137.218 130.839 137.289L133.874 139.023C133.935 139.054 134.002 139.072 134.071 139.074C134.139 139.076 134.207 139.062 134.27 139.034H134.324ZM130.801 146.08L136.584 142.687C136.692 142.622 136.687 142.513 136.584 142.448L129.218 138.21C129.154 138.177 129.082 138.159 129.01 138.159C128.937 138.159 128.865 138.177 128.801 138.21L125.787 139.95C125.674 140.015 125.679 140.123 125.787 140.194L129.679 142.438C129.798 142.508 129.804 142.616 129.679 142.676L127.267 144.069C127.153 144.134 127.164 144.242 127.267 144.313L130.291 146.058C130.361 146.097 130.439 146.117 130.519 146.117C130.599 146.117 130.677 146.097 130.747 146.058L130.801 146.08ZM111.289 143.37L108.671 144.882C108.563 144.942 108.568 145.05 108.671 145.12L111.652 146.882C111.717 146.914 111.788 146.931 111.861 146.931C111.933 146.931 112.004 146.914 112.069 146.882L114.682 145.37C114.796 145.305 114.79 145.196 114.682 145.131L111.652 143.381C111.585 143.341 111.509 143.319 111.431 143.317C111.353 143.315 111.276 143.333 111.208 143.37H111.289ZM107.468 145.576L104.85 147.088C104.741 147.153 104.747 147.256 104.85 147.326L107.874 149.072C107.939 149.105 108.01 149.122 108.083 149.122C108.156 149.122 108.227 149.105 108.292 149.072L110.904 147.559C111.018 147.494 111.012 147.386 110.904 147.321L107.88 145.576C107.806 145.528 107.721 145.503 107.633 145.503C107.546 145.503 107.46 145.528 107.386 145.576H107.468ZM88.3677 170.318C88.4322 170.351 88.5037 170.369 88.5763 170.369C88.6489 170.369 88.7205 170.351 88.785 170.318L91.4029 168.806C91.5113 168.741 91.5059 168.632 91.4029 168.567L88.3785 166.822C88.314 166.789 88.2424 166.772 88.1698 166.772C88.0972 166.772 88.0257 166.789 87.9612 166.822L85.3487 168.334C85.2349 168.394 85.2403 168.502 85.3487 168.573L88.3677 170.318ZM76.8935 163.229L74.1944 164.768C74.086 164.828 74.0914 164.936 74.1944 165.006L77.2187 166.752C77.2836 166.784 77.355 166.8 77.4274 166.8C77.4998 166.8 77.5712 166.784 77.6361 166.752L80.2485 165.24C80.3623 165.174 80.3569 165.066 80.2485 165.001L77.2242 163.256C77.1625 163.219 77.093 163.198 77.0214 163.193C76.9499 163.188 76.8782 163.2 76.8122 163.229H76.8935ZM83.0452 168.405C83.1098 168.438 83.1813 168.455 83.2539 168.455C83.3265 168.455 83.3981 168.438 83.4626 168.405L86.075 166.893C86.1888 166.828 86.178 166.719 86.075 166.654L83.0506 164.909C82.9861 164.876 82.9146 164.858 82.842 164.858C82.7694 164.858 82.6978 164.876 82.6333 164.909L80.0209 166.421C79.9125 166.486 79.9179 166.589 80.0209 166.66L83.0452 168.405ZM95.1156 171.657L97.7334 170.145C97.8418 170.08 97.8364 169.971 97.7334 169.906L94.7091 168.161C94.6446 168.128 94.573 168.11 94.5004 168.11C94.4278 168.11 94.3563 168.128 94.2917 168.161L91.598 169.646C91.4842 169.706 91.4896 169.814 91.598 169.884L94.6224 171.63C94.684 171.666 94.7532 171.688 94.8246 171.693C94.8959 171.699 94.9676 171.688 95.0343 171.662L95.1156 171.657ZM90.8771 173.825C90.9417 173.858 91.0132 173.875 91.0858 173.875C91.1584 173.875 91.2299 173.858 91.2945 173.825L93.9123 172.313C94.0207 172.248 94.0153 172.139 93.9123 172.074L90.888 170.329C90.8235 170.296 90.7519 170.278 90.6793 170.278C90.6067 170.278 90.5352 170.296 90.4706 170.329L87.8528 171.841C87.7444 171.901 87.7498 172.009 87.8528 172.08L90.8771 173.825ZM80.7146 160.99L78.0968 162.497C77.9884 162.562 77.9938 162.67 78.0968 162.741L81.1211 164.486C81.186 164.518 81.2574 164.535 81.3298 164.535C81.4022 164.535 81.4736 164.518 81.5385 164.486L84.1509 162.974C84.2647 162.909 84.2593 162.801 84.1509 162.735L81.1265 160.985C81.0489 160.945 80.9617 160.927 80.8746 160.934C80.7875 160.941 80.704 160.971 80.6333 161.023L80.7146 160.99ZM99.728 149.988L97.1101 151.5C97.0017 151.565 97.0072 151.673 97.1101 151.738L100.134 153.484C100.199 153.517 100.271 153.534 100.343 153.534C100.416 153.534 100.487 153.517 100.552 153.484L103.164 151.971C103.278 151.912 103.267 151.803 103.164 151.733L100.14 149.988C100.076 149.956 100.005 149.939 99.934 149.939C99.8625 149.939 99.7919 149.956 99.728 149.988ZM84.4544 158.806L81.842 160.324C81.7282 160.389 81.7336 160.497 81.842 160.567L84.8664 162.313C84.9309 162.346 85.0024 162.363 85.075 162.363C85.1476 162.363 85.2192 162.346 85.2837 162.313L87.9015 160.806C88.0099 160.741 88.0045 160.633 87.9015 160.562L84.8718 158.806C84.8069 158.774 84.7355 158.757 84.6631 158.757C84.5907 158.757 84.5193 158.774 84.4544 158.806ZM103.565 147.771L100.947 149.283C100.839 149.348 100.845 149.456 100.947 149.522L103.972 151.267C104.036 151.3 104.108 151.317 104.181 151.317C104.253 151.317 104.325 151.3 104.389 151.267L107.002 149.755C107.115 149.69 107.105 149.587 107.002 149.516L103.977 147.771C103.913 147.74 103.842 147.725 103.77 147.727C103.698 147.729 103.628 147.748 103.565 147.782V147.771ZM95.934 152.194L93.3215 153.706C93.2077 153.771 93.2186 153.879 93.3215 153.944L96.3459 155.689C96.4104 155.723 96.482 155.74 96.5546 155.74C96.6272 155.74 96.6987 155.723 96.7633 155.689L99.3757 154.183C99.4841 154.118 99.4787 154.009 99.3757 153.939L96.3513 152.194C96.2864 152.162 96.215 152.145 96.1427 152.145C96.0703 152.145 95.9989 152.162 95.934 152.194ZM92.1129 154.405L89.5005 155.912C89.3866 155.977 89.3975 156.085 89.5005 156.15L92.5194 157.901C92.5843 157.933 92.6557 157.95 92.7281 157.95C92.8004 157.95 92.8718 157.933 92.9367 157.901L95.5546 156.394C95.663 156.329 95.6576 156.221 95.5546 156.15L92.5302 154.405C92.4637 154.369 92.3891 154.35 92.3134 154.35C92.2377 154.35 92.1632 154.369 92.0966 154.405H92.1129ZM88.3189 156.611L85.7065 158.118C85.5926 158.183 85.5981 158.291 85.7065 158.362L88.7308 160.107C88.7957 160.139 88.8671 160.155 88.9395 160.155C89.0119 160.155 89.0833 160.139 89.1481 160.107L91.766 158.6C91.8744 158.535 91.869 158.427 91.766 158.356L88.6929 156.638C88.628 156.606 88.5566 156.589 88.4842 156.589C88.4118 156.589 88.3404 156.606 88.2755 156.638L88.3189 156.611ZM107.831 159.294L110.443 157.787C110.557 157.722 110.546 157.614 110.443 157.543L107.419 155.798C107.354 155.765 107.283 155.747 107.21 155.747C107.138 155.747 107.066 155.765 107.002 155.798L104.384 157.305C104.275 157.37 104.281 157.478 104.384 157.549L107.408 159.294C107.472 159.324 107.541 159.34 107.611 159.34C107.682 159.34 107.751 159.324 107.815 159.294H107.831ZM141.397 125.95L138.752 127.462C138.644 127.522 138.649 127.63 138.752 127.701L141.776 129.446C141.841 129.478 141.913 129.495 141.985 129.495C142.057 129.495 142.129 129.478 142.194 129.446L144.806 127.934C144.92 127.869 144.915 127.76 144.806 127.695L141.782 125.95C141.719 125.919 141.651 125.903 141.581 125.903C141.512 125.903 141.443 125.919 141.381 125.95H141.397ZM136.768 128.622L134.156 130.129C134.042 130.194 134.047 130.302 134.156 130.373L137.18 132.118C137.245 132.151 137.316 132.169 137.389 132.169C137.461 132.169 137.533 132.151 137.598 132.118L140.215 130.611C140.324 130.546 140.318 130.438 140.215 130.367L137.191 128.622C137.123 128.586 137.048 128.568 136.972 128.568C136.895 128.568 136.82 128.586 136.752 128.622H136.768ZM145.218 123.744L142.6 125.251C142.492 125.316 142.497 125.424 142.6 125.495L145.625 127.24C145.689 127.272 145.761 127.289 145.833 127.289C145.906 127.289 145.977 127.272 146.042 127.24L148.654 125.728C148.768 125.663 148.763 125.554 148.654 125.489L145.63 123.739C145.563 123.706 145.49 123.689 145.415 123.69C145.341 123.691 145.268 123.709 145.202 123.744H145.218ZM125.419 144.172L128.037 142.66C128.145 142.595 128.14 142.486 128.037 142.421L125.012 140.671C124.947 140.639 124.876 140.622 124.804 140.622C124.731 140.622 124.66 140.639 124.595 140.671L121.95 142.145C121.842 142.21 121.847 142.318 121.95 142.389L124.974 144.134C125.04 144.177 125.114 144.202 125.192 144.209C125.269 144.216 125.347 144.203 125.419 144.172ZM149.44 121.571C149.375 121.539 149.304 121.522 149.232 121.522C149.159 121.522 149.088 121.539 149.023 121.571L146.41 123.034C146.297 123.099 146.302 123.207 146.41 123.278L149.435 125.023C149.499 125.056 149.571 125.074 149.643 125.074C149.716 125.074 149.788 125.056 149.852 125.023L152.47 123.516C152.578 123.451 152.573 123.343 152.47 123.272L149.44 121.571ZM111.652 157.088L114.264 155.581C114.378 155.516 114.373 155.408 114.264 155.337L111.24 153.592C111.175 153.56 111.104 153.543 111.031 153.543C110.959 153.543 110.888 153.56 110.823 153.592L108.205 155.104C108.096 155.169 108.102 155.278 108.205 155.343L111.229 157.093C111.295 157.125 111.368 157.142 111.441 157.141C111.515 157.14 111.587 157.122 111.652 157.088ZM158.519 130.031L161.131 128.519C161.245 128.454 161.24 128.346 161.131 128.281L158.107 126.535C158.042 126.502 157.971 126.485 157.898 126.485C157.826 126.485 157.754 126.502 157.689 126.535L155.072 128.047C154.963 128.107 154.969 128.216 155.072 128.286L158.096 130.031C158.159 130.063 158.229 130.079 158.299 130.079C158.37 130.079 158.439 130.063 158.502 130.031H158.519ZM150.389 129.744L153.001 128.232C153.115 128.167 153.11 128.058 153.001 127.993L149.977 126.248C149.912 126.215 149.841 126.197 149.768 126.197C149.696 126.197 149.624 126.215 149.559 126.248L146.882 127.749C146.774 127.809 146.779 127.917 146.882 127.988L149.906 129.733C149.975 129.775 150.053 129.798 150.133 129.8C150.212 129.801 150.291 129.782 150.362 129.744H150.389ZM153.787 124.037C153.722 124.005 153.651 123.988 153.578 123.988C153.506 123.988 153.435 124.005 153.37 124.037L150.752 125.543C150.643 125.608 150.649 125.717 150.752 125.787L153.776 127.533C153.841 127.565 153.913 127.581 153.985 127.581C154.057 127.581 154.129 127.565 154.194 127.533L156.811 126.02C156.92 125.955 156.914 125.847 156.811 125.782L153.787 124.037ZM154.589 123.576L161.933 127.814C161.998 127.846 162.07 127.863 162.142 127.863C162.214 127.863 162.286 127.846 162.351 127.814L164.969 126.302C165.077 126.237 165.072 126.129 164.969 126.064L157.624 121.82C157.56 121.788 157.488 121.771 157.416 121.771C157.343 121.771 157.272 121.788 157.207 121.82L154.595 123.327C154.437 123.397 154.47 123.506 154.562 123.576H154.589ZM145.728 128.454L143.088 129.955C142.98 130.02 142.985 130.123 143.088 130.194L146.112 131.939C146.177 131.972 146.248 131.99 146.321 131.99C146.394 131.99 146.465 131.972 146.53 131.939L149.142 130.427C149.256 130.362 149.251 130.259 149.142 130.188L146.118 128.454C146.053 128.421 145.982 128.403 145.909 128.403C145.837 128.403 145.765 128.421 145.7 128.454H145.728ZM116.964 145.061L114.346 146.573C114.237 146.638 114.243 146.741 114.346 146.812L117.37 148.557C117.435 148.59 117.506 148.607 117.579 148.607C117.651 148.607 117.723 148.59 117.787 148.557L120.4 147.045C120.514 146.98 120.503 146.877 120.4 146.806L117.381 145.061C117.314 145.021 117.238 144.999 117.16 144.998C117.082 144.996 117.005 145.014 116.936 145.05L116.964 145.061ZM154.264 132.248C154.329 132.281 154.4 132.299 154.473 132.299C154.545 132.299 154.617 132.281 154.681 132.248L157.294 130.736C157.408 130.671 157.402 130.568 157.294 130.497L154.269 128.752C154.205 128.719 154.133 128.701 154.061 128.701C153.988 128.701 153.917 128.719 153.852 128.752L151.218 130.243C151.11 130.308 151.115 130.411 151.218 130.481L154.264 132.248ZM120.758 142.844L118.156 144.356C118.048 144.416 118.053 144.524 118.156 144.595L121.18 146.34C121.245 146.373 121.316 146.391 121.389 146.391C121.462 146.391 121.533 146.373 121.598 146.34L124.21 144.828C124.324 144.763 124.319 144.654 124.21 144.589L121.186 142.844C121.12 142.809 121.046 142.791 120.972 142.791C120.897 142.791 120.823 142.809 120.758 142.844ZM92.1075 168.112C92.1724 168.144 92.2438 168.161 92.3161 168.161C92.3885 168.161 92.4599 168.144 92.5248 168.112L95.1427 166.6C95.2511 166.535 95.2456 166.427 95.1427 166.361L92.1183 164.616C92.0538 164.583 91.9822 164.566 91.9096 164.566C91.837 164.566 91.7655 164.583 91.701 164.616L89.0885 166.128C88.9747 166.188 88.9801 166.296 89.0885 166.367L92.1075 168.112ZM86.3623 162.692L83.7444 164.226C83.636 164.286 83.6414 164.394 83.7444 164.464L86.7688 166.21C86.8337 166.242 86.9051 166.258 86.9774 166.258C87.0498 166.258 87.1212 166.242 87.1861 166.21L89.7985 164.698C89.9124 164.632 89.9015 164.524 89.7985 164.459L86.7796 162.714C86.716 162.679 86.6449 162.66 86.5723 162.658C86.4997 162.656 86.4277 162.671 86.3623 162.703V162.692ZM96.3459 165.906L98.9638 164.394C99.0722 164.329 99.0667 164.221 98.9638 164.156L95.934 162.416C95.8691 162.384 95.7977 162.367 95.7253 162.367C95.653 162.367 95.5815 162.384 95.5166 162.416L92.9042 163.922C92.7904 163.988 92.8012 164.096 92.9042 164.166L95.934 165.906C95.9974 165.939 96.0674 165.957 96.1387 165.959C96.2101 165.961 96.2809 165.947 96.3459 165.917V165.906ZM100.172 163.695L102.785 162.188C102.893 162.123 102.888 162.015 102.785 161.944L99.728 160.21C99.6631 160.178 99.5917 160.161 99.5193 160.161C99.447 160.161 99.3755 160.178 99.3106 160.21L96.6982 161.717C96.5844 161.782 96.5952 161.89 96.6982 161.96L99.7226 163.706C99.793 163.741 99.8715 163.758 99.9504 163.754C100.029 163.751 100.106 163.726 100.172 163.684V163.695ZM103.994 161.489L106.606 159.982C106.72 159.917 106.709 159.809 106.606 159.738L103.582 157.993C103.518 157.961 103.447 157.944 103.376 157.944C103.304 157.944 103.234 157.961 103.17 157.993L100.552 159.5C100.443 159.565 100.449 159.673 100.552 159.744L103.576 161.516C103.641 161.548 103.712 161.565 103.785 161.565C103.857 161.565 103.929 161.548 103.994 161.516V161.489ZM90.1834 160.486L87.5655 161.993C87.4571 162.058 87.4625 162.166 87.5655 162.237L90.5899 163.982C90.6548 164.014 90.7262 164.031 90.7985 164.031C90.8709 164.031 90.9423 164.014 91.0072 163.982L93.6196 162.47C93.7335 162.405 93.7281 162.296 93.6196 162.231L90.5953 160.481C90.5299 160.452 90.4588 160.439 90.3875 160.442C90.3161 160.444 90.2463 160.463 90.1834 160.497V160.486ZM94.0045 158.28L91.3866 159.787C91.2782 159.852 91.2836 159.96 91.3866 160.031L94.411 161.776C94.4755 161.809 94.547 161.827 94.6196 161.827C94.6922 161.827 94.7638 161.809 94.8283 161.776L97.4408 160.269C97.5546 160.204 97.5492 160.096 97.4408 160.025L94.4164 158.28C94.3514 158.251 94.2805 158.236 94.2092 158.238C94.1378 158.24 94.0678 158.258 94.0045 158.291V158.28ZM109.289 149.451L106.676 150.963C106.563 151.028 106.573 151.137 106.676 151.202L109.701 152.947C109.764 152.98 109.835 152.998 109.907 152.998C109.978 152.998 110.049 152.98 110.113 152.947L112.731 151.435C112.839 151.375 112.834 151.267 112.731 151.196L109.706 149.451C109.64 149.421 109.569 149.406 109.496 149.408C109.424 149.41 109.353 149.428 109.289 149.462V149.451ZM105.495 151.657L102.882 153.169C102.769 153.234 102.779 153.343 102.882 153.408L105.901 155.158C105.966 155.19 106.038 155.207 106.11 155.207C106.182 155.207 106.254 155.19 106.319 155.158L108.937 153.652C109.045 153.587 109.04 153.478 108.937 153.408L105.912 151.662C105.843 151.627 105.767 151.609 105.689 151.609C105.612 151.61 105.536 151.63 105.468 151.668L105.495 151.657ZM113.142 147.245L110.525 148.757C110.416 148.822 110.422 148.931 110.525 148.996L113.549 150.741C113.614 150.774 113.685 150.792 113.758 150.792C113.83 150.792 113.902 150.774 113.966 150.741L116.579 149.229C116.693 149.169 116.682 149.061 116.579 148.99L113.554 147.245C113.487 147.209 113.41 147.191 113.333 147.193C113.257 147.194 113.181 147.216 113.115 147.256L113.142 147.245ZM97.8256 156.096L95.2131 157.603C95.0993 157.668 95.1047 157.776 95.2131 157.847L98.2375 159.592C98.3024 159.624 98.3738 159.641 98.4462 159.641C98.5185 159.641 98.5899 159.624 98.6548 159.592L101.273 158.085C101.381 158.02 101.376 157.912 101.273 157.841L98.2429 156.096C98.178 156.064 98.1066 156.047 98.0342 156.047C97.9619 156.047 97.8905 156.064 97.8256 156.096ZM101.62 153.89L99.0071 155.397C98.8933 155.462 98.8987 155.57 99.0071 155.641L102.031 157.386C102.096 157.418 102.168 157.435 102.24 157.435C102.313 157.435 102.384 157.418 102.449 157.386L105.067 155.879C105.175 155.814 105.17 155.706 105.067 155.635L102.042 153.89C101.981 153.859 101.914 153.841 101.846 153.839C101.777 153.838 101.709 153.851 101.647 153.879L101.62 153.89ZM98.8283 169.467L101.446 167.955C101.555 167.89 101.549 167.782 101.446 167.716L98.4218 165.966C98.3569 165.934 98.2855 165.917 98.2131 165.917C98.1407 165.917 98.0693 165.934 98.0044 165.966L95.392 167.478C95.2782 167.543 95.2836 167.651 95.392 167.722L98.4109 169.467C98.4802 169.502 98.557 169.519 98.6345 169.517C98.712 169.515 98.7879 169.495 98.8554 169.456L98.8283 169.467ZM76.422 167.191L73.403 165.445C73.3385 165.412 73.267 165.395 73.1944 165.395C73.1218 165.395 73.0502 165.412 72.9857 165.445L70.3733 166.936C70.2649 166.996 70.2703 167.104 70.3733 167.174L73.3976 168.92C73.4622 168.953 73.5337 168.97 73.6063 168.97C73.6789 168.97 73.7504 168.953 73.815 168.92L76.4274 167.408C76.5575 167.364 76.5467 167.256 76.422 167.191ZM82.1509 168.871L79.132 167.126C79.0675 167.092 78.9959 167.075 78.9233 167.075C78.8507 167.075 78.7792 167.092 78.7147 167.126L74.693 169.451C74.5846 169.516 74.59 169.619 74.693 169.689L77.7174 171.435C77.7819 171.468 77.8534 171.485 77.926 171.485C77.9986 171.485 78.0702 171.468 78.1347 171.435L82.1564 169.109C82.281 169.044 82.2756 168.941 82.1564 168.871H82.1509ZM71.7879 163.814L68.769 162.058C68.7041 162.026 68.6327 162.009 68.5603 162.009C68.4879 162.009 68.4165 162.026 68.3516 162.058L65.1321 163.917C65.0183 163.982 65.0292 164.09 65.1321 164.161L68.1511 165.906C68.216 165.938 68.2874 165.955 68.3597 165.955C68.4321 165.955 68.5035 165.938 68.5684 165.906L71.7879 164.047C71.918 163.993 71.9126 163.885 71.7933 163.814H71.7879ZM74.254 162.389C74.3185 162.422 74.3901 162.439 74.4627 162.439C74.5353 162.439 74.6068 162.422 74.6713 162.389L77.2838 160.876C77.3976 160.811 77.3868 160.708 77.2838 160.638L74.254 158.904C74.1895 158.87 74.1179 158.853 74.0453 158.853C73.9727 158.853 73.9012 158.87 73.8366 158.904L71.2188 160.432C71.1104 160.497 71.1158 160.6 71.2188 160.67L74.254 162.389ZM87.4788 170.784L84.4544 169.039C84.3899 169.006 84.3184 168.988 84.2458 168.988C84.1732 168.988 84.1016 169.006 84.0371 169.039L79.0073 171.944C78.8989 172.009 78.9044 172.118 79.0073 172.183L82.0317 173.928C82.0962 173.961 82.1678 173.978 82.2404 173.978C82.313 173.978 82.3845 173.961 82.449 173.928L87.4734 171.023C87.6089 170.958 87.6035 170.855 87.4842 170.784H87.4788ZM89.9883 174.323L86.9639 172.578C86.8994 172.545 86.8278 172.528 86.7552 172.528C86.6826 172.528 86.6111 172.545 86.5465 172.578L83.3271 174.437C83.2187 174.502 83.2241 174.611 83.3271 174.676L86.3514 176.426C86.4163 176.458 86.4877 176.475 86.5601 176.475C86.6325 176.475 86.7039 176.458 86.7688 176.426L89.9828 174.567C90.1183 174.524 90.1129 174.394 89.972 174.323H89.9883ZM102.666 145.982C102.73 146.016 102.802 146.033 102.874 146.033C102.947 146.033 103.018 146.016 103.083 145.982L105.701 144.47C105.809 144.41 105.804 144.302 105.701 144.232L102.676 142.486C102.612 142.453 102.54 142.436 102.468 142.436C102.395 142.436 102.324 142.453 102.259 142.486L99.6467 143.999C99.5329 144.064 99.5437 144.172 99.6467 144.237L102.666 145.982ZM95.0234 150.4C95.0883 150.432 95.1597 150.448 95.2321 150.448C95.3045 150.448 95.3759 150.432 95.4408 150.4L98.0586 148.893C98.167 148.828 98.1616 148.719 98.0586 148.649L95.0343 146.904C94.9694 146.872 94.898 146.855 94.8256 146.855C94.7532 146.855 94.6818 146.872 94.6169 146.904L92.0045 148.416C91.8907 148.481 91.8961 148.589 92.0045 148.654L95.0234 150.4ZM78.0751 160.183C78.1396 160.216 78.2112 160.233 78.2838 160.233C78.3564 160.233 78.4279 160.216 78.4924 160.183L81.1049 158.67C81.2187 158.605 81.2133 158.497 81.1049 158.432L78.0805 156.687C78.016 156.653 77.9444 156.636 77.8718 156.636C77.7992 156.636 77.7277 156.653 77.6632 156.687L75.0453 158.199C74.9369 158.259 74.9423 158.367 75.0453 158.437L78.0751 160.183ZM98.8445 148.188C98.9091 148.221 98.9806 148.239 99.0532 148.239C99.1258 148.239 99.1973 148.221 99.2619 148.188L101.88 146.676C101.988 146.616 101.983 146.508 101.88 146.438L98.8445 144.714C98.7796 144.682 98.7082 144.665 98.6359 144.665C98.5635 144.665 98.4921 144.682 98.4272 144.714L95.8148 146.226C95.7009 146.291 95.7064 146.4 95.8148 146.465L98.8445 148.188ZM91.2023 152.606C91.2672 152.638 91.3386 152.654 91.411 152.654C91.4834 152.654 91.5548 152.638 91.6197 152.606L94.2375 151.099C94.3459 151.034 94.3405 150.925 94.2375 150.855L91.2132 149.11C91.1486 149.076 91.0771 149.059 91.0045 149.059C90.9319 149.059 90.8604 149.076 90.7958 149.11L88.178 150.616C88.0696 150.681 88.075 150.79 88.178 150.86L91.2023 152.606ZM92.0858 174.605C92.0213 174.572 91.9497 174.555 91.8771 174.555C91.8045 174.555 91.733 174.572 91.6685 174.605L87.6468 176.925C87.5384 176.99 87.5438 177.098 87.6468 177.169L90.6712 178.914C90.7361 178.946 90.8075 178.963 90.8798 178.963C90.9522 178.963 91.0236 178.946 91.0885 178.914L95.1101 176.594C95.2185 176.529 95.2131 176.421 95.1101 176.351L92.0858 174.605ZM85.7227 155.771C85.7872 155.804 85.8588 155.821 85.9314 155.821C86.004 155.821 86.0755 155.804 86.14 155.771L88.7579 154.264C88.8663 154.199 88.8609 154.091 88.7579 154.02L85.7173 152.302C85.6524 152.27 85.581 152.253 85.5086 152.253C85.4363 152.253 85.3649 152.27 85.3 152.302L82.6875 153.809C82.5737 153.874 82.5791 153.982 82.6875 154.053L85.7227 155.771ZM81.9287 157.977C81.9936 158.009 82.065 158.025 82.1374 158.025C82.2098 158.025 82.2811 158.009 82.346 157.977L84.9585 156.465C85.0723 156.4 85.0669 156.291 84.9585 156.226L81.8962 154.47C81.8317 154.437 81.7601 154.419 81.6875 154.419C81.6149 154.419 81.5434 154.437 81.4789 154.47L78.861 155.977C78.7526 156.042 78.758 156.15 78.861 156.221L81.9287 157.977ZM162.925 133.728C162.86 133.696 162.789 133.679 162.717 133.679C162.644 133.679 162.573 133.696 162.508 133.728L156.069 137.446C155.961 137.511 155.966 137.619 156.069 137.69L159.093 139.435C159.158 139.467 159.23 139.484 159.302 139.484C159.374 139.484 159.446 139.467 159.511 139.435L165.944 135.717C166.058 135.657 166.053 135.549 165.944 135.478L162.925 133.728ZM154.475 138.606C154.411 138.572 154.339 138.555 154.267 138.555C154.194 138.555 154.123 138.572 154.058 138.606L151.446 140.118C151.332 140.183 151.337 140.291 151.446 140.356L154.47 142.102C154.535 142.135 154.606 142.152 154.679 142.152C154.751 142.152 154.823 142.135 154.887 142.102L157.505 140.589C157.614 140.53 157.608 140.421 157.505 140.351L154.475 138.606ZM102.704 167.245L105.321 165.738C105.43 165.673 105.424 165.565 105.321 165.494L102.297 163.749C102.232 163.717 102.161 163.7 102.088 163.7C102.016 163.7 101.945 163.717 101.88 163.749L99.2673 165.256C99.1535 165.321 99.1643 165.429 99.2673 165.5L102.292 167.245C102.352 167.274 102.417 167.289 102.484 167.289C102.551 167.289 102.616 167.274 102.676 167.245H102.704ZM146.833 143.018C146.769 142.984 146.697 142.967 146.625 142.967C146.552 142.967 146.48 142.984 146.416 143.018L143.798 144.524C143.69 144.589 143.695 144.698 143.798 144.768L146.822 146.513C146.887 146.545 146.959 146.562 147.031 146.562C147.103 146.562 147.175 146.545 147.24 146.513L149.852 145.007C149.966 144.942 149.961 144.833 149.852 144.763L146.833 143.018ZM166.746 131.522C166.682 131.488 166.61 131.471 166.538 131.471C166.465 131.471 166.393 131.488 166.329 131.522L163.684 133.023C163.576 133.088 163.581 133.196 163.684 133.262L166.708 135.007C166.773 135.04 166.844 135.057 166.917 135.057C166.99 135.057 167.061 135.04 167.126 135.007L169.738 133.495C169.852 133.435 169.847 133.327 169.738 133.256L166.746 131.522ZM173.592 131.061L166.221 126.828C166.156 126.795 166.084 126.777 166.012 126.777C165.939 126.777 165.868 126.795 165.803 126.828L163.191 128.34C163.077 128.4 163.082 128.508 163.191 128.579L170.546 132.79C170.61 132.823 170.682 132.841 170.754 132.841C170.827 132.841 170.899 132.823 170.963 132.79L173.581 131.278C173.689 131.234 173.684 131.131 173.565 131.061H173.592ZM132.552 151.261C132.487 151.229 132.415 151.213 132.343 151.213C132.27 151.213 132.199 151.229 132.134 151.261L128.915 153.12C128.801 153.18 128.812 153.288 128.915 153.359L131.939 155.104C132.004 155.137 132.075 155.155 132.148 155.155C132.22 155.155 132.292 155.137 132.356 155.104L135.57 153.245C135.684 153.18 135.679 153.072 135.57 153.007L132.552 151.261ZM142.205 145.69C142.14 145.658 142.068 145.641 141.996 145.641C141.923 145.641 141.852 145.658 141.787 145.69L137.766 148.015C137.652 148.08 137.663 148.188 137.766 148.253L140.79 149.998C140.854 150.032 140.926 150.049 140.999 150.049C141.071 150.049 141.143 150.032 141.207 149.998L145.229 147.673C145.337 147.614 145.332 147.505 145.229 147.435L142.205 145.69ZM123.701 156.372C123.636 156.339 123.565 156.322 123.492 156.322C123.419 156.322 123.348 156.339 123.283 156.372L101.733 168.79C101.62 168.855 101.63 168.963 101.733 169.034L104.752 170.779C104.817 170.811 104.889 170.827 104.961 170.827C105.033 170.827 105.105 170.811 105.17 170.779L126.692 158.356C126.806 158.291 126.801 158.183 126.692 158.112L123.701 156.372ZM100.969 169.494C100.904 169.462 100.833 169.446 100.761 169.446C100.688 169.446 100.617 169.462 100.552 169.494L97.3324 171.353C97.224 171.413 97.2294 171.521 97.3324 171.592L100.357 173.337C100.421 173.37 100.493 173.388 100.565 173.388C100.638 173.388 100.71 173.37 100.774 173.337L103.994 171.478C104.102 171.413 104.097 171.305 103.994 171.239L100.969 169.494ZM128.123 153.82C128.059 153.786 127.987 153.769 127.915 153.769C127.842 153.769 127.771 153.786 127.706 153.82L124.492 155.679C124.378 155.744 124.384 155.852 124.492 155.917L127.516 157.668C127.581 157.7 127.653 157.716 127.725 157.716C127.797 157.716 127.869 157.7 127.934 157.668L131.153 155.809C131.262 155.744 131.256 155.641 131.153 155.57L128.123 153.82ZM96.5465 172.052C96.4819 172.019 96.4104 172.002 96.3378 172.002C96.2652 172.002 96.1936 172.019 96.1291 172.052L92.9096 173.912C92.7958 173.977 92.8067 174.085 92.9096 174.15L95.934 175.901C95.9979 175.933 96.0685 175.949 96.14 175.949C96.2114 175.949 96.282 175.933 96.3459 175.901L99.5654 174.042C99.6792 173.977 99.6738 173.874 99.5654 173.803L96.5465 172.052ZM136.974 148.709C136.909 148.677 136.838 148.66 136.766 148.66C136.693 148.66 136.622 148.677 136.557 148.709L133.332 150.557C133.224 150.622 133.229 150.73 133.332 150.801L136.356 152.546C136.421 152.579 136.492 152.597 136.565 152.597C136.638 152.597 136.709 152.579 136.774 152.546L139.993 150.692C140.102 150.627 140.096 150.519 139.993 150.448L136.974 148.709ZM150.654 140.812C150.589 140.78 150.518 140.763 150.446 140.763C150.373 140.763 150.302 140.78 150.237 140.812L147.619 142.324C147.511 142.389 147.516 142.497 147.619 142.562L150.643 144.313C150.708 144.345 150.78 144.362 150.852 144.362C150.925 144.362 150.996 144.345 151.061 144.313L153.673 142.806C153.787 142.741 153.782 142.633 153.673 142.562L150.654 140.812ZM159.028 134.73L161.641 133.218C161.754 133.159 161.749 133.05 161.641 132.98L158.616 131.234C158.552 131.201 158.48 131.184 158.408 131.184C158.335 131.184 158.263 131.201 158.199 131.234L155.554 132.736C155.446 132.801 155.451 132.909 155.554 132.974L158.578 134.72C158.643 134.755 158.715 134.775 158.788 134.777C158.862 134.779 158.935 134.763 159.001 134.73H159.028ZM141.939 134.622L144.557 133.11C144.665 133.045 144.66 132.936 144.557 132.871L141.532 131.126C141.468 131.093 141.396 131.075 141.324 131.075C141.251 131.075 141.18 131.093 141.115 131.126L138.503 132.633C138.389 132.698 138.394 132.806 138.503 132.877L141.527 134.622C141.588 134.649 141.653 134.663 141.719 134.663C141.786 134.663 141.851 134.649 141.912 134.622H141.939ZM133.267 149.597L140.909 145.18C141.018 145.12 141.012 145.012 140.909 144.942L137.885 143.196C137.82 143.163 137.749 143.146 137.676 143.146C137.604 143.146 137.532 143.163 137.467 143.196L129.825 147.608C129.711 147.673 129.722 147.782 129.825 147.852L132.85 149.597C132.913 149.627 132.983 149.642 133.053 149.641C133.124 149.64 133.193 149.623 133.256 149.592L133.267 149.597ZM154.774 136.925C154.838 136.959 154.91 136.976 154.982 136.976C155.055 136.976 155.126 136.959 155.191 136.925L157.803 135.419C157.917 135.354 157.906 135.245 157.803 135.175L154.784 133.43C154.719 133.398 154.648 133.381 154.576 133.381C154.503 133.381 154.432 133.398 154.367 133.43L151.722 134.958C151.614 135.023 151.619 135.131 151.722 135.196L154.774 136.925ZM150.871 134.443L153.484 132.931C153.597 132.871 153.592 132.763 153.484 132.692L150.465 130.947C150.4 130.914 150.329 130.897 150.256 130.897C150.183 130.897 150.112 130.914 150.047 130.947L147.424 132.449C147.316 132.514 147.321 132.622 147.424 132.687L150.448 134.432C150.511 134.466 150.581 134.485 150.653 134.487C150.725 134.489 150.796 134.474 150.86 134.443H150.871ZM129.44 151.787L132.058 150.275C132.167 150.21 132.161 150.101 132.058 150.036L128.996 148.307C128.931 148.274 128.86 148.257 128.787 148.257C128.715 148.257 128.643 148.274 128.579 148.307L125.966 149.82C125.852 149.879 125.863 149.988 125.966 150.058L128.985 151.803C129.054 151.84 129.13 151.859 129.207 151.859C129.285 151.859 129.361 151.84 129.43 151.803L129.44 151.787ZM146.34 141.803C146.405 141.837 146.476 141.854 146.549 141.854C146.621 141.854 146.693 141.837 146.757 141.803L149.37 140.291C149.484 140.232 149.478 140.123 149.37 140.053L146.345 138.308C146.281 138.274 146.209 138.257 146.137 138.257C146.064 138.257 145.993 138.274 145.928 138.308L143.272 139.836C143.164 139.901 143.169 140.009 143.272 140.074L146.34 141.803ZM110.351 162.833L112.964 161.326C113.077 161.261 113.067 161.153 112.964 161.082L109.901 159.348C109.837 159.315 109.765 159.297 109.693 159.297C109.62 159.297 109.549 159.315 109.484 159.348L106.866 160.855C106.758 160.92 106.763 161.028 106.866 161.099L109.89 162.844C109.958 162.877 110.033 162.893 110.109 162.891C110.184 162.889 110.258 162.869 110.324 162.833H110.351ZM114.145 160.627L116.758 159.12C116.871 159.055 116.866 158.947 116.758 158.876L113.733 157.131C113.668 157.099 113.597 157.083 113.525 157.083C113.452 157.083 113.381 157.099 113.316 157.131L110.698 158.643C110.59 158.708 110.595 158.817 110.698 158.882L113.722 160.627C113.788 160.661 113.86 160.679 113.934 160.679C114.007 160.679 114.08 160.661 114.145 160.627ZM106.503 165.039L109.115 163.532C109.229 163.467 109.218 163.359 109.115 163.288L106.091 161.543C106.026 161.511 105.955 161.494 105.882 161.494C105.81 161.494 105.739 161.511 105.674 161.543L103.061 163.05C102.953 163.115 102.958 163.223 103.061 163.294L106.086 165.039C106.151 165.071 106.222 165.088 106.294 165.088C106.367 165.088 106.438 165.071 106.503 165.039ZM121.787 156.215L124.405 154.703C124.514 154.638 124.508 154.535 124.405 154.465L121.381 152.719C121.316 152.686 121.245 152.669 121.172 152.669C121.1 152.669 121.028 152.686 120.964 152.719L118.351 154.232C118.237 154.297 118.243 154.4 118.351 154.47L121.375 156.215C121.439 156.248 121.51 156.264 121.581 156.264C121.653 156.264 121.724 156.248 121.787 156.215ZM117.993 158.421L120.606 156.909C120.72 156.849 120.714 156.741 120.606 156.671L117.581 154.925C117.517 154.892 117.445 154.875 117.373 154.875C117.3 154.875 117.229 154.892 117.164 154.925L114.546 156.437C114.438 156.502 114.443 156.611 114.546 156.676L117.571 158.421C117.632 158.451 117.7 158.466 117.768 158.466C117.837 158.466 117.905 158.451 117.966 158.421H117.993ZM125.636 154.009L128.253 152.497C128.362 152.432 128.356 152.324 128.253 152.259L125.202 150.513C125.137 150.48 125.066 150.463 124.993 150.463C124.921 150.463 124.849 150.48 124.785 150.513L122.172 152.026C122.058 152.085 122.064 152.194 122.172 152.264L125.197 154.009C125.26 154.042 125.331 154.059 125.403 154.059C125.474 154.059 125.545 154.042 125.608 154.009H125.636ZM143.088 121.365C143.153 121.398 143.224 121.415 143.297 121.415C143.369 121.415 143.441 121.398 143.505 121.365L146.123 119.852C146.232 119.787 146.226 119.684 146.123 119.614L145.316 119.148C145.251 119.115 145.18 119.097 145.107 119.097C145.034 119.097 144.963 119.115 144.898 119.148L142.286 120.655C142.177 120.72 142.183 120.828 142.286 120.899L143.088 121.365ZM124.286 133.505C124.351 133.537 124.422 133.554 124.495 133.554C124.567 133.554 124.638 133.537 124.703 133.505L127.316 131.999C127.43 131.934 127.424 131.825 127.316 131.755L124.297 130.01C124.232 129.976 124.161 129.959 124.088 129.959C124.016 129.959 123.944 129.976 123.88 130.01L121.262 131.516C121.153 131.581 121.159 131.69 121.262 131.76L124.286 133.505ZM131.928 129.088C131.993 129.121 132.064 129.139 132.137 129.139C132.209 129.139 132.281 129.121 132.346 129.088L134.958 127.587C135.072 127.527 135.066 127.419 134.958 127.348L131.934 125.603C131.869 125.571 131.797 125.554 131.725 125.554C131.653 125.554 131.581 125.571 131.516 125.603L128.898 127.115C128.79 127.18 128.795 127.289 128.898 127.354L131.928 129.088ZM119.619 136.199C119.684 136.231 119.756 136.248 119.828 136.248C119.9 136.248 119.972 136.231 120.037 136.199L122.649 134.692C122.763 134.627 122.752 134.519 122.649 134.449L119.63 132.703C119.565 132.671 119.494 132.655 119.422 132.655C119.349 132.655 119.278 132.671 119.213 132.703L116.595 134.21C116.487 134.275 116.492 134.383 116.595 134.454L119.619 136.199ZM128.107 131.321C128.172 131.353 128.243 131.37 128.316 131.37C128.388 131.37 128.46 131.353 128.524 131.321L131.137 129.814C131.251 129.749 131.245 129.641 131.137 129.571L128.113 127.825C128.048 127.793 127.976 127.777 127.904 127.777C127.831 127.777 127.76 127.793 127.695 127.825L125.077 129.337C124.969 129.402 124.974 129.511 125.077 129.576L128.107 131.321ZM111.977 140.633C112.041 140.665 112.112 140.681 112.183 140.681C112.255 140.681 112.325 140.665 112.389 140.633L115.007 139.121C115.115 139.056 115.11 138.947 115.007 138.882L111.972 137.126C111.907 137.094 111.835 137.077 111.763 137.077C111.691 137.077 111.619 137.094 111.554 137.126L108.942 138.622C108.828 138.687 108.839 138.795 108.942 138.866L111.977 140.633ZM115.771 138.427C115.836 138.46 115.907 138.477 115.98 138.477C116.052 138.477 116.124 138.46 116.189 138.427L118.801 136.92C118.915 136.855 118.904 136.747 118.801 136.676L115.777 134.931C115.713 134.899 115.642 134.882 115.571 134.882C115.499 134.882 115.429 134.899 115.365 134.931L112.747 136.438C112.638 136.503 112.644 136.611 112.747 136.682L115.771 138.427ZM135.419 125.798C135.483 125.831 135.555 125.849 135.627 125.849C135.7 125.849 135.772 125.831 135.836 125.798L138.448 124.286C138.562 124.226 138.557 124.118 138.448 124.048L137.668 123.576C137.603 123.544 137.532 123.527 137.459 123.527C137.387 123.527 137.316 123.544 137.251 123.576L134.638 125.083C134.524 125.148 134.53 125.256 134.638 125.327L135.419 125.798ZM146.882 119.18C146.947 119.214 147.018 119.231 147.091 119.231C147.163 119.231 147.235 119.214 147.299 119.18L149.917 117.668C150.026 117.603 150.02 117.495 149.917 117.43L149.115 116.964C149.05 116.932 148.979 116.915 148.906 116.915C148.834 116.915 148.763 116.932 148.698 116.964L146.08 118.476C145.971 118.541 145.977 118.649 146.08 118.714L146.882 119.18ZM153.234 122.85C153.299 122.882 153.371 122.898 153.443 122.898C153.515 122.898 153.587 122.882 153.652 122.85L156.269 121.343C156.378 121.278 156.372 121.17 156.269 121.099L153.245 119.354C153.18 119.322 153.109 119.305 153.036 119.305C152.964 119.305 152.893 119.322 152.828 119.354L150.232 120.866C150.118 120.931 150.123 121.039 150.232 121.11L153.234 122.85ZM162.79 132.546L165.402 131.034C165.516 130.969 165.511 130.866 165.402 130.795L162.378 129.05C162.313 129.017 162.242 129 162.169 129C162.096 129 162.025 129.017 161.96 129.05L159.348 130.53C159.24 130.595 159.245 130.698 159.348 130.768L162.372 132.514C162.44 132.554 162.517 132.577 162.596 132.578C162.675 132.58 162.753 132.562 162.822 132.524L162.79 132.546ZM139.294 123.576C139.359 123.609 139.43 123.627 139.503 123.627C139.575 123.627 139.647 123.609 139.711 123.576L142.324 122.064C142.438 122.004 142.432 121.896 142.324 121.825L141.516 121.359C141.451 121.327 141.38 121.311 141.308 121.311C141.235 121.311 141.164 121.327 141.099 121.359L138.486 122.866C138.373 122.931 138.383 123.039 138.486 123.11L139.294 123.576ZM108.156 142.817C108.221 142.85 108.292 142.868 108.365 142.868C108.437 142.868 108.509 142.85 108.573 142.817L111.191 141.305C111.3 141.24 111.294 141.131 111.191 141.066L108.167 139.321C108.102 139.288 108.031 139.27 107.958 139.27C107.886 139.27 107.814 139.288 107.75 139.321L105.148 140.833C105.034 140.893 105.045 141.001 105.148 141.072L108.156 142.817Z" fill="#455A64"/>
<path d="M125.104 165.76L150.909 150.86C151.346 150.638 151.829 150.523 152.318 150.523C152.808 150.523 153.291 150.638 153.728 150.86L168.524 159.402C169.305 159.852 169.305 160.578 168.524 161.028L142.719 175.928C142.283 176.15 141.8 176.265 141.31 176.265C140.821 176.265 140.338 176.15 139.901 175.928L125.104 167.386C124.329 166.936 124.329 166.204 125.104 165.76Z" fill="#263238"/>
<path d="M172.562 94.1128H172.529L168.123 91.5763C167.868 91.4624 167.494 91.5763 167.039 91.9123C162.941 95.0451 157.429 96.0207 152.947 94.5898C152.657 94.3191 152.382 94.0333 152.123 93.7334L152.042 93.6413C151.913 93.4915 151.759 93.365 151.586 93.2673L151.511 93.2239L147.099 90.6928C146.595 90.4543 146.139 90.6928 145.836 91.4408C141.576 102.026 132.497 112.752 126.443 115.435C125.985 115.64 125.578 115.944 125.251 116.324C124.816 116.796 124.576 117.416 124.579 118.058L125.451 141.825C125.451 148.692 128.351 155.944 134.264 159.473L138.828 162.107L138.909 162.15C141.377 163.536 144.166 164.244 146.996 164.204C147.63 164.204 148.275 164.177 148.942 164.112C150.238 163.899 151.44 163.298 152.389 162.389C165.619 148.725 172.052 130.232 172.052 119.999L172.898 95.1101C172.93 94.5735 172.8 94.2429 172.562 94.1128Z" fill="#BA68C8"/>
<path d="M172.898 95.1102L172.025 119.972C172.025 130.205 165.592 148.698 152.362 162.362C151.413 163.271 150.211 163.872 148.915 164.085C148.248 164.15 147.603 164.177 146.969 164.177C144.139 164.217 141.349 163.508 138.882 162.123L138.801 162.08L138.644 161.982C132.73 158.454 129.831 151.202 129.831 144.335L128.996 120.568C128.993 119.926 129.233 119.306 129.668 118.833C129.996 118.453 130.403 118.15 130.86 117.945C136.915 115.235 145.993 104.536 150.253 93.9503C150.557 93.2023 151.017 92.9584 151.522 93.1969L151.597 93.2403C151.769 93.338 151.923 93.4644 152.053 93.6142L152.134 93.7064C156.654 98.9692 165.543 98.9638 171.478 94.4218C171.928 94.0804 172.302 93.972 172.562 94.0858H172.594C172.8 94.243 172.931 94.5736 172.898 95.1102Z" fill="#BA68C8"/>
<path opacity="0.4" d="M172.535 94.0804C172.28 93.9665 171.906 94.0804 171.451 94.4164C165.863 98.6928 157.652 98.9475 152.942 94.5573C157.446 95.9936 162.947 95.018 167.034 91.8798C167.483 91.5384 167.857 91.43 168.118 91.5438L172.535 94.0804Z" fill="white"/>
<path opacity="0.4" d="M151.494 93.1915C150.99 92.953 150.53 93.1915 150.226 93.9449C145.966 104.53 136.888 115.256 130.833 117.939C130.376 118.145 129.969 118.448 129.641 118.828C129.527 118.958 129.426 119.097 129.337 119.245L124.936 116.703C125.024 116.558 125.124 116.42 125.235 116.292C125.295 116.221 125.361 116.154 125.43 116.091L125.506 116.015L125.581 115.945C125.832 115.722 126.115 115.539 126.421 115.403C132.476 112.72 141.554 101.994 145.814 91.4083C146.118 90.6603 146.573 90.4219 147.077 90.6603L151.494 93.1915Z" fill="white"/>
<path d="M125.435 116.081C125.458 116.055 125.484 116.031 125.512 116.01L125.435 116.087C125.435 116.087 125.43 116.081 125.435 116.081Z" fill="#BA68C8"/>
<path opacity="0.15" d="M125.512 115.988L125.435 116.065C125.458 116.037 125.484 116.011 125.512 115.988Z" fill="black"/>
<path opacity="0.15" d="M138.893 162.118L138.812 162.08L134.248 159.44C128.335 155.912 125.435 148.66 125.435 141.793L124.562 118.026C124.553 117.558 124.683 117.097 124.936 116.703L129.337 119.245C129.088 119.639 128.96 120.097 128.969 120.562L129.842 144.329C129.842 151.196 132.741 158.421 138.654 161.977L138.812 162.074L138.893 162.118Z" fill="black"/>
<path d="M154.47 140.253L147.424 144.318L148.508 131.576C147.668 131.131 147.126 130.037 147.126 128.459C147.126 125.657 148.833 122.394 150.92 121.18C153.007 119.966 154.714 121.256 154.714 124.058C154.672 125.721 154.197 127.345 153.337 128.768L154.47 140.253Z" fill="#455A64"/>
<path d="M154.459 140.253L148.08 136.568L147.419 144.318L154.459 140.253Z" fill="#37474F"/>
<path d="M150.942 121.18C149.559 121.977 148.362 123.646 147.69 125.489L153.386 128.768C154.246 127.345 154.721 125.721 154.763 124.058C154.746 121.256 153.045 119.966 150.942 121.18Z" fill="#37474F"/>
<path d="M62.8286 214.274V216.388C62.8286 218.881 64.4546 221.369 67.75 223.271C72.7039 226.128 79.9775 226.827 86.075 225.369L91.7335 228.621L96.0695 227.635L99.0342 229.353L99.1968 232.935L100.823 233.862L104.839 234.214L107.722 235.84V237.862L111.348 239.949H120.562L123.863 238.046V235.911L94.411 221.044C95.6604 219.821 96.3903 218.163 96.4489 216.415V214.247C96.0044 212.177 94.2809 211.109 91.5329 209.521C84.9693 205.727 74.3353 205.727 67.7717 209.521C64.8015 211.255 63.1267 212.047 62.8286 214.274ZM71.8475 211.797C72.8906 211.268 74.0437 210.993 75.2133 210.993C76.3829 210.993 77.536 211.268 78.5791 211.797C80.4382 212.881 80.4382 214.61 78.5791 215.683C77.536 216.212 76.3829 216.488 75.2133 216.488C74.0437 216.488 72.8906 216.212 71.8475 215.683C69.9884 214.632 69.9884 212.87 71.8475 211.797Z" fill="#BA68C8"/>
<path opacity="0.1" d="M62.8286 214.274V216.388C62.8286 218.881 64.4546 221.369 67.75 223.271C72.7039 226.128 79.9775 226.827 86.075 225.369L91.7335 228.621L96.0695 227.635L99.0342 229.353L99.1968 232.935L100.823 233.862L104.839 234.214L107.722 235.84V237.862L111.348 239.949H120.562L123.863 238.046V235.911L94.411 221.044C95.6604 219.821 96.3903 218.163 96.4489 216.415V214.247C96.0044 212.177 94.2809 211.109 91.5329 209.521C84.9693 205.727 74.3353 205.727 67.7717 209.521C64.8015 211.255 63.1267 212.047 62.8286 214.274ZM71.8475 211.797C72.8906 211.268 74.0437 210.993 75.2133 210.993C76.3829 210.993 77.536 211.268 78.5791 211.797C80.4382 212.881 80.4382 214.61 78.5791 215.683C77.536 216.212 76.3829 216.488 75.2133 216.488C74.0437 216.488 72.8906 216.212 71.8475 215.683C69.9884 214.632 69.9884 212.87 71.8475 211.797Z" fill="black"/>
<path d="M67.7501 221.136C72.704 223.998 79.9777 224.697 86.0752 223.234L91.7336 226.486L96.0696 225.505L99.0344 227.217L99.197 230.805L100.823 231.727L104.839 232.079L107.972 233.824L107.723 235.71L111.349 237.802H120.563L123.863 235.9L94.4111 218.892C97.8799 215.212 96.926 210.513 91.5331 207.402C84.9695 203.608 74.3354 203.608 67.7718 207.402C61.2082 211.196 61.1865 217.342 67.7501 221.136ZM71.8477 209.662C72.8908 209.133 74.0439 208.857 75.2135 208.857C76.3831 208.857 77.5362 209.133 78.5793 209.662C80.4384 210.746 80.4384 212.475 78.5793 213.548C77.5362 214.077 76.3831 214.353 75.2135 214.353C74.0439 214.353 72.8908 214.077 71.8477 213.548C69.9886 212.464 69.9886 210.73 71.8477 209.656V209.662Z" fill="#BA68C8"/>
<path opacity="0.3" d="M79.6306 222.112C75.4626 222.112 71.5765 221.19 68.6822 219.521C66.1457 218.057 64.6877 216.144 64.6877 214.274C64.6877 212.404 66.1457 210.48 68.6822 209.022C71.5765 207.353 75.4626 206.432 79.6306 206.432C83.7986 206.432 87.6847 207.353 90.579 209.022C93.1156 210.491 94.5736 212.399 94.5736 214.274C94.5736 216.15 93.1156 218.068 90.579 219.521C87.6847 221.19 83.7986 222.112 79.6306 222.112ZM79.6306 207.179C75.5927 207.179 71.8367 208.063 69.0508 209.667C66.7527 210.995 65.4356 212.675 65.4356 214.274C65.4356 215.873 66.7527 217.526 69.0508 218.876C71.8367 220.502 75.5927 221.369 79.6306 221.369C83.6685 221.369 87.4246 220.48 90.2105 218.876C92.5085 217.548 93.8256 215.868 93.8256 214.274C93.8256 212.681 92.5085 211.022 90.2105 209.667C87.4246 208.063 83.6685 207.179 79.6306 207.179Z" fill="black"/>
<path opacity="0.1" d="M73.5819 223.304V225.472C77.7014 226.368 81.9683 226.338 86.075 225.385V223.25C81.9656 224.189 77.6993 224.208 73.5819 223.304Z" fill="black"/>
<path opacity="0.1" d="M91.7335 226.496V228.637L96.0803 227.651V225.515L91.7335 226.496Z" fill="black"/>
<path opacity="0.1" d="M99.045 227.228V229.369L99.2076 232.952V230.816L99.045 227.228Z" fill="black"/>
<path opacity="0.1" d="M100.807 231.738V233.878L104.823 234.231V232.09L100.807 231.738Z" fill="black"/>
<path opacity="0.1" d="M120.541 237.813H111.332V239.954H120.541V237.813Z" fill="black"/>
<path opacity="0.15" d="M123.842 235.906V238.046L120.541 239.949V237.813L121.982 236.979V237.9L122.785 237.439V236.507L123.842 235.906Z" fill="black"/>
<path d="M122.785 236.507L121.982 236.979V237.9L122.785 237.439V236.507Z" fill="#BA68C8"/>
<path opacity="0.15" d="M122.785 236.507V237.439L92.579 219.998L93.3757 219.532L122.785 236.507Z" fill="black"/>
<path opacity="0.15" d="M93.3757 219.532V220.464L92.579 219.998L93.3757 219.532Z" fill="black"/>
<path d="M224.675 156.4C225.06 142.308 223.927 138.898 220.166 136.313L218.713 144.492C218.713 144.492 220.426 154.134 220.242 157.343C220.079 160.166 219.803 163.695 219.158 165.971C219.035 166.375 218.769 166.72 218.41 166.941C217.629 167.493 216.933 168.156 216.345 168.909C215.803 169.5 215.304 169.646 215.375 169.836C215.485 170.042 215.668 170.2 215.889 170.277C216.11 170.354 216.352 170.346 216.567 170.253C217.048 170.066 217.503 169.818 217.922 169.516C217.593 170.383 217.124 171.19 216.534 171.906C215.19 173.532 215.131 174.562 217.841 174.589C219.543 174.589 220.898 173.554 222.177 169.814C222.674 168.444 223.072 167.04 223.369 165.614C223.992 161.912 224.616 158.671 224.675 156.4Z" fill="#B16668"/>
<path d="M217.006 135.24C218.161 135.035 219.351 135.211 220.398 135.741C221.445 136.271 222.291 137.126 222.811 138.177C224.388 140.99 224.773 145.836 224.979 150.643C224.979 150.643 221.851 153.261 218.101 151.977L217.006 135.24Z" fill="#BA68C8"/>
<path opacity="0.7" d="M217.006 135.24C218.161 135.035 219.351 135.211 220.398 135.741C221.445 136.271 222.291 137.126 222.811 138.177C224.388 140.99 224.773 145.836 224.979 150.643C224.979 150.643 221.851 153.261 218.101 151.977L217.006 135.24Z" fill="black"/>
<path d="M222.285 212.887C222.567 212.995 222.637 213.537 222.681 214.616C222.713 215.429 222.892 216.854 221.933 217.141C220.973 217.429 219.575 217.277 218.963 216.507C218.222 215.476 217.429 214.483 216.589 213.532C215.646 212.518 214.621 211.564 214.236 210.139C213.895 208.854 214.182 208.296 215.06 207.922C216.269 207.38 218.166 209.087 219.114 209.353C219.927 209.581 221.998 212.778 222.285 212.887Z" fill="#263238"/>
<path d="M222.285 211.884V213.212C221.787 213.529 221.212 213.705 220.622 213.72C220.032 213.735 219.449 213.59 218.935 213.299C218.876 213.174 218.589 211.407 218.589 211.407L222.285 211.884Z" fill="#B16668"/>
<path d="M211.553 220.518C211.787 221.23 211.982 221.954 212.139 222.686C212.301 223.488 212.534 224.854 212.258 225.429C211.982 226.003 210.881 226.421 209.185 226.41C208.101 226.41 206.377 227.147 205.207 227.803C204.036 228.458 201.478 228.746 200.193 228.594C198.686 228.415 197.125 227.542 196.881 226.919C196.638 226.296 196.957 225.645 200.518 224.128C200.551 224.128 205.461 222.502 207.179 220.621L211.553 220.518Z" fill="#263238"/>
<path d="M211.553 219.087V220.632C211.553 221.174 210.898 222.03 209.179 221.971C207.976 221.927 207.131 221.602 207.179 220.61V219.174L211.553 219.087Z" fill="#B16668"/>
<path d="M223.147 194.307C222.852 191.961 222.328 189.65 221.58 187.407C221.58 187.407 222.052 181.445 222.28 175.814C222.524 169.716 222.28 162.058 222.383 160.535C222.383 160.535 202.713 156.557 202.361 163.603C202.009 170.649 203.142 188.583 203.375 191.678C203.608 194.773 204.139 197.516 204.778 202.518C205.418 207.521 207.18 219.163 207.18 219.163C207.86 219.509 208.614 219.682 209.377 219.667C210.14 219.652 210.888 219.449 211.553 219.076C211.553 219.076 212.941 204.984 212.795 201.413C212.682 198.767 212.227 196.147 211.44 193.619C211.44 193.619 211.814 187.808 212.144 182.779C212.475 177.749 212.822 175.294 212.898 173.099L213.32 172.887C213.32 172.887 213.754 181.608 213.987 184.703C214.22 187.798 214.708 190.762 215.613 196.513C216.394 201.505 218.708 212.057 218.708 212.057C220.952 213.272 222.296 211.895 222.296 211.895C222.296 211.895 223.748 198.638 223.147 194.307Z" fill="#37474F"/>
<path d="M212.898 173.088C212.898 173.088 217.667 170.73 220.052 168.616C220.052 168.616 217.835 171.738 214.925 173.126C214.925 173.126 213.889 183.966 213.895 183.738L213.293 173.071L212.898 173.088Z" fill="#263238"/>
<path d="M208.648 133.012L209.814 139.419L215.602 138.99L214.388 131.733L208.648 133.012Z" fill="#B16668"/>
<path d="M221.711 138.524C221.141 136.785 218.93 134.888 216.719 135.272C213.436 135.839 210.202 136.656 207.044 137.717C205.022 138.438 203.174 140.188 203.006 146.849C203.006 146.849 202.329 162.372 202.318 165.375C206.543 167.033 211.145 167.487 215.613 166.687C221.694 165.359 222.431 162.833 222.431 162.833C222.431 162.833 222.507 151.668 222.323 146.849C222.16 142.752 222.106 139.722 221.711 138.524Z" fill="#BA68C8"/>
<g opacity="0.15">
<path d="M221.711 138.524C221.141 136.785 218.93 134.888 216.719 135.272C213.436 135.839 210.202 136.656 207.044 137.717C205.022 138.438 203.174 140.188 203.006 146.849C203.006 146.849 202.329 162.372 202.318 165.375C206.543 167.033 211.145 167.487 215.613 166.687C221.694 165.359 222.431 162.833 222.431 162.833C222.431 162.833 222.507 151.668 222.323 146.849C222.16 142.752 222.106 139.722 221.711 138.524Z" fill="black"/>
</g>
<path d="M204.188 125.202C204.188 125.202 202.719 127.543 202.898 127.766C203.077 127.988 204.199 128.167 204.199 128.167L204.188 125.202Z" fill="#9A4A4D"/>
<path d="M208.258 118.747C205.201 119.462 204.345 120.833 204.166 125.728C203.976 130.833 204.535 132.427 205.217 133.099C205.684 133.554 208.198 133.581 209.461 133.202C211.039 132.73 214.6 131.375 216.22 128.774C218.128 125.706 218.556 121.603 216.404 119.972C213.369 117.674 209.505 118.454 208.258 118.747Z" fill="#B16668"/>
<path d="M204.199 120.02C204.9 121.043 205.891 121.834 207.044 122.291C207.629 122.958 207.31 125.543 208.339 125.977C208.339 125.977 208.784 124.08 210.377 124.286C211.971 124.492 212.247 126.519 211.266 127.782C210.285 129.045 209.337 128.589 209.337 128.589C209.337 128.589 209.445 131.299 210.675 132.785C210.675 132.785 212.041 133.196 214.534 132.606C216.063 132.243 218.193 130.275 219.06 128.221C220.898 123.885 220.941 119.999 218.171 118.899C217.83 116.92 216.247 116.069 214.459 115.701C210.605 114.904 208.123 117.327 205.158 117.099C203.461 116.98 203.147 118.216 204.199 120.02Z" fill="#263238"/>
<path d="M218.231 119.56L220.047 118.438C219.988 118.291 219.898 118.158 219.783 118.049C219.668 117.94 219.53 117.858 219.38 117.808C219.229 117.758 219.07 117.742 218.913 117.76C218.755 117.779 218.604 117.832 218.469 117.915C218.334 117.998 218.219 118.11 218.132 118.242C218.045 118.375 217.989 118.525 217.966 118.682C217.943 118.839 217.955 118.998 218.001 119.15C218.047 119.302 218.125 119.442 218.231 119.56Z" fill="#263238"/>
<path d="M182.567 149.251C183.516 149.673 194.73 157.955 196.475 156.99C198.22 156.026 207.19 145.549 207.19 145.549C207.948 144.378 208.351 143.014 208.351 141.619C208.351 140.225 207.948 138.86 207.19 137.69C207.19 137.69 204.318 138.232 202.811 140.497C201.304 142.763 194.811 150.92 194.811 150.92C193.207 150.118 191.606 149.305 190.009 148.481C188.697 147.798 187.38 147.12 186.096 146.389C185.735 146.221 185.394 146.012 185.082 145.765C184.448 145.137 184.54 143.597 184.573 142.795C184.573 142.41 184.573 142.026 184.627 141.641C184.681 141.169 184.773 140.015 183.922 140.383C183.761 140.46 183.622 140.576 183.516 140.719C183.385 140.896 183.283 141.092 183.212 141.299C183.055 141.798 183.104 142.345 182.958 142.85C182.94 142.924 182.905 142.993 182.855 143.05C182.779 143.109 182.684 143.138 182.589 143.131C181.353 143.093 180.182 141.359 179.613 140.421C179.416 139.974 179.09 139.597 178.676 139.337C178.004 139.018 177.191 139.473 176.752 140.08C176.223 140.878 176.007 141.843 176.145 142.79C176.259 144.086 176.836 145.298 177.771 146.204C179.183 147.488 180.805 148.518 182.567 149.251Z" fill="#B16668"/>
<path d="M208.128 137.354C206.892 137.495 204.838 137.587 202.822 139.869C200.448 142.546 197.353 146.882 197.353 146.882C197.669 148.164 198.349 149.328 199.31 150.234C200.272 151.14 201.474 151.749 202.773 151.988C202.773 151.988 207.017 147.652 208.193 145.245C209.369 142.839 209.564 138.969 208.128 137.354Z" fill="#BA68C8"/>
<path opacity="0.7" d="M208.128 137.354C206.892 137.495 204.838 137.587 202.822 139.869C200.448 142.546 197.353 146.882 197.353 146.882C197.669 148.164 198.349 149.328 199.31 150.234C200.272 151.14 201.474 151.749 202.773 151.988C202.773 151.988 207.017 147.652 208.193 145.245C209.369 142.839 209.564 138.969 208.128 137.354Z" fill="black"/>
</svg>
